<?xml version="1.0" encoding="utf-8"?>
<!-- Generator: Adobe Illustrator 20.1.0, SVG Export Plug-In . SVG Version: 6.00 Build 0)  -->
<svg version="1.1" id="Layer_1" xmlns="http://www.w3.org/2000/svg" xmlns:xlink="http://www.w3.org/1999/xlink" x="0px" y="0px"
	 viewBox="0 0 510 305.9" style="enable-background:new 0 0 510 305.9;" xml:space="preserve">
<style type="text/css">
	.st0{fill:#2A327C;}
	.st1{opacity:0.6;}
	.st2{clip-path:url(#SVGID_2_);fill:#4F5BA5;}
	.st3{clip-path:url(#SVGID_4_);fill:#FDCA32;}
	.st4{fill:#FDCA32;}
	.st5{font-family:'Manrope-ExtraBold';}
	.st6{font-size:18.7698px;}
	.st7{fill:#FFFFFF;}
	.st8{font-family:'Manrope-Medium';}
	.st9{font-size:11.3386px;}
	.st10{font-size:17.0079px;}
	.st11{font-size:19.8425px;}
	.st12{fill:none;stroke:#FFFFFF;stroke-miterlimit:10;}
	.st13{fill:#242F7D;}
	.st14{fill:none;}
</style>
<path class="st0" d="M29.8,302.9h451.7c14,0,25.3-11.3,25.3-25.3V28.5c0-14-11.3-25.3-25.3-25.3H29.8c-14,0-25.3,11.3-25.3,25.3
	v249.1C4.5,291.6,15.9,302.9,29.8,302.9"/>
<g class="st1">
	<g>
		<g>
			<defs>
				<rect id="SVGID_1_" x="20.2" y="68.8" width="291.5" height="234"/>
			</defs>
			<clipPath id="SVGID_2_">
				<use xlink:href="#SVGID_1_"  style="overflow:visible;"/>
			</clipPath>
			<path class="st2" d="M20.2,275V131.1c29.9-37.9,76.2-62.3,128.3-62.3c90.1,0,163.2,73.1,163.2,163.2c0,25.4-5.8,49.4-16.1,70.8
				H48C32.6,302.9,20.2,290.4,20.2,275"/>
		</g>
	</g>
</g>
<g>
	<g>
		<defs>
			<path id="SVGID_3_" d="M29.8,3.2c-14,0-25.3,11.3-25.3,25.3v249.1c0,14,11.3,25.3,25.3,25.3h451.7c14,0,25.3-11.3,25.3-25.3V28.5
				c0-14-11.3-25.3-25.3-25.3L29.8,3.2L29.8,3.2z"/>
		</defs>
		<clipPath id="SVGID_4_">
			<use xlink:href="#SVGID_3_"  style="overflow:visible;"/>
		</clipPath>
		<path class="st3" d="M-5.3,276.9V133C24.6,95.1,70.9,70.7,123,70.7c90.1,0,163.2,73.1,163.2,163.2c0,25.4-5.8,49.4-16.1,70.8H22.6
			C7.2,304.8-5.3,292.3-5.3,276.9"/>
	</g>
</g>
<text transform="matrix(1 0 0 1 300.2854 72.776)" class="st4 st5 st6">Застра</text>
<text transform="matrix(1 0 0 1 367.4854 72.776)" class="st4 st5 st6">х</text>
<text transform="matrix(1 0 0 1 377.6854 72.776)" class="st4 st5 st6">оват</text>
<text transform="matrix(1 0 0 1 421.1854 72.776)" class="st4 st5 st6">е</text>
<text transform="matrix(1 0 0 1 432.2854 72.776)" class="st4 st5 st6">лно</text>
<text transform="matrix(1 0 0 1 300.2854 95.2995)" class="st4 st5 st6">покритие:</text>
<text transform="matrix(1 0 0 1 319.226 129.5134)" class="st7 st8 st9">Организирана профи</text>
<text transform="matrix(1 0 0 1 435.6259 129.5134)" class="st7 st8 st9">л</text>
<text transform="matrix(1 0 0 1 441.9259 129.5134)" class="st7 st8 st9">актика:</text>
<text transform="matrix(1 0 0 1 319.226 143.1198)" class="st4 st5 st9">Стандарт</text>
<text transform="matrix(1 0 0 1 319.226 164.3796)" class="st7 st8 st9">Б</text>
<text transform="matrix(1 0 0 1 326.226 164.3796)" class="st7 st8 st9">о</text>
<text transform="matrix(1 0 0 1 332.826 164.3796)" class="st7 st8 st9">лнична помощ:</text>
<text transform="matrix(1 0 0 1 319.226 177.986)" class="st4 st5 st9">Стандарт</text>
<text transform="matrix(1 0 0 1 319.226 199.3932)" class="st7 st8 st9">Изв</text>
<text transform="matrix(1 0 0 1 339.0259 199.3932)" class="st7 st8 st9">ъ</text>
<text transform="matrix(1 0 0 1 345.426 199.3932)" class="st7 st8 st9">нб</text>
<text transform="matrix(1 0 0 1 358.926 199.3932)" class="st7 st8 st9">о</text>
<text transform="matrix(1 0 0 1 365.426 199.3932)" class="st7 st8 st9">лнична помощ:</text>
<text transform="matrix(1 0 0 1 319.226 212.9997)" class="st4 st5 st9">Стандарт</text>
<text transform="matrix(1 0 0 1 71.2186 175.612)" class="st0 st8 st10">ww</text>
<text transform="matrix(1 0 0 1 97.7186 175.612)" class="st0 st8 st10">w</text>
<text transform="matrix(1 0 0 1 109.6186 175.612)" class="st0 st8 st10">.eu</text>
<text transform="matrix(1 0 0 1 134.5186 175.612)" class="st0 st8 st10">r</text>
<text transform="matrix(1 0 0 1 140.7186 175.612)" class="st0 st8 st10">oins.bg</text>
<text transform="matrix(1 0 0 1 79.6102 200.1598)" class="st0 st5 st11">0700 17 </text>
<text transform="matrix(1 0 0 1 158.3102 200.1598)" class="st0 st5 st11">2</text>
<text transform="matrix(1 0 0 1 169.8102 200.1598)" class="st0 st5 st11">41</text>
<line class="st12" x1="310.8" y1="125.1" x2="300.3" y2="125.1"/>
<line class="st12" x1="310.8" y1="161" x2="300.3" y2="161"/>
<line class="st12" x1="310.8" y1="195" x2="300.3" y2="195"/>
<text transform="matrix(1 0 0 1 319.226 233.403)" class="st7 st8 st9">Лекарствени продукти:</text>
<text transform="matrix(1 0 0 1 319.226 247.0085)" class="st4 st5 st9">Стандарт</text>
<line class="st12" x1="310.8" y1="229" x2="300.3" y2="229"/>
<path class="st13" d="M57,264.4v-10.9l0,0h17.6c-2.8,6.4-9.2,10.9-16.6,10.9C57.8,264.4,57.4,264.4,57,264.4 M75.5,251.2H57l0,0
	v-10.6h18.2c0.6,1.8,1,3.8,1,5.8C76.2,248.1,75.9,249.7,75.5,251.2L75.5,251.2z M74.2,238.3h-17H57v-9.9c0.4,0,0.7,0,1.1,0
	C65.1,228.3,71.3,232.4,74.2,238.3z M55,228.6v35.5c-8.5-1.5-14.9-8.9-14.9-17.8C40.1,237.5,46.5,230.1,55,228.6z"/>
<path class="st14" d="M57,264.4v-10.9l0,0h17.6c-2.8,6.4-9.2,10.9-16.6,10.9C57.8,264.4,57.4,264.4,57,264.4z M75.5,251.2H57l0,0
	v-10.6h18.2c0.6,1.8,1,3.8,1,5.8C76.2,248.1,75.9,249.7,75.5,251.2L75.5,251.2z M74.2,238.3h-17H57v-9.9c0.4,0,0.7,0,1.1,0
	C65.1,228.3,71.3,232.4,74.2,238.3z M55,228.6v35.5c-8.5-1.5-14.9-8.9-14.9-17.8C40.1,237.5,46.5,230.1,55,228.6z M43.4,253.4H45
	l0.5-1.5l0.5,1.5h1.6l-1.3,0.9l0.5,1.5l-1.3-0.9l-1.3,0.9l0.5-1.5L43.4,253.4z M41.6,246.1h1.5l0.5-1.4l0.5,1.4h1.5l-1.2,0.9
	l0.5,1.4l-1.2-0.9l-1.2,0.9L43,247L41.6,246.1z M43.7,238.4h1.6l0.5-1.6l0.5,1.6h1.6l-1.3,0.9l0.5,1.5l-1.3-0.9l-1.2,0.9l0.5-1.5
	L43.7,238.4z M49.2,233.2h1.5l0.5-1.4l0.5,1.4h1.5l-1.2,0.9l0.5,1.4l-1.2-0.9l-1.2,0.9l0.5-1.4L49.2,233.2z M49.1,258.6h1.5l0.5-1.5
	l0.5,1.5h1.5l-1.2,0.9l0.5,1.5l-1.2-0.9l-1.3,0.9l0.5-1.5L49.1,258.6z"/>
<path class="st13" d="M84.8,255.5v-18h13.4v3.1h-9.7v4h9.1v3h-9.1v4.9h10.1v3H84.8z M101.6,237.5h3.6v9.8c0,1.5,0,2.5,0.1,3
	c0.2,0.7,0.5,1.3,1.1,1.8s1.4,0.7,2.4,0.7s1.8-0.2,2.3-0.6c0.5-0.4,0.8-0.9,0.9-1.6c0.1-0.6,0.2-1.6,0.2-3.1v-10h3.6v9.5
	c0,2.2-0.1,3.7-0.3,4.6c-0.2,0.9-0.6,1.6-1.1,2.3c-0.5,0.6-1.2,1.1-2.1,1.5c-0.9,0.4-2,0.5-3.5,0.5c-1.7,0-3-0.2-3.9-0.6
	c-0.9-0.4-1.6-0.9-2.1-1.5s-0.8-1.3-1-2c-0.2-1-0.3-2.6-0.3-4.6v-9.7H101.6z M119.8,255.5v-18h7.7c1.9,0,3.3,0.2,4.2,0.5
	s1.6,0.9,2.1,1.7s0.8,1.8,0.8,2.8c0,1.4-0.4,2.5-1.2,3.3c-0.8,0.9-2,1.4-3.6,1.7c0.8,0.5,1.4,1,1.9,1.5c0.5,0.6,1.2,1.5,2.1,2.9
	l2.2,3.5h-4.3l-2.6-3.9c-0.9-1.4-1.6-2.3-1.9-2.6s-0.7-0.6-1.1-0.8c-0.4-0.1-1-0.2-1.8-0.2h-0.7v7.5L119.8,255.5L119.8,255.5z
	 M123.4,245.1h2.7c1.7,0,2.8-0.1,3.3-0.2s0.8-0.4,1-0.8c0.2-0.4,0.4-0.8,0.4-1.4c0-0.6-0.2-1.1-0.5-1.5s-0.8-0.6-1.4-0.7
	c-0.3,0-1.2-0.1-2.7-0.1h-2.8V245.1z M137.2,246.6c0-1.8,0.3-3.4,0.8-4.6c0.4-0.9,1-1.7,1.7-2.5c0.7-0.7,1.5-1.3,2.3-1.6
	c1.1-0.5,2.4-0.7,3.9-0.7c2.6,0,4.8,0.8,6.4,2.5c1.6,1.6,2.4,3.9,2.4,6.9c0,2.9-0.8,5.2-2.4,6.8c-1.6,1.6-3.7,2.5-6.3,2.5
	c-2.7,0-4.8-0.8-6.4-2.4C138,251.8,137.2,249.5,137.2,246.6 M141,246.5c0,2,0.5,3.6,1.4,4.7c0.9,1,2.1,1.6,3.6,1.6s2.6-0.5,3.6-1.6
	c0.9-1,1.4-2.6,1.4-4.7c0-2.1-0.4-3.6-1.4-4.6c-0.9-1-2.1-1.5-3.6-1.5s-2.7,0.5-3.6,1.5C141.4,242.9,141,244.4,141,246.5
	 M157.4,237.5h3.6v18h-3.6V237.5z M164.6,255.5v-18h3.5l7.4,12v-12h3.4v18h-3.7l-7.3-11.8v11.8H164.6z M181.8,249.7l3.5-0.3
	c0.2,1.2,0.6,2.1,1.3,2.6c0.7,0.6,1.5,0.8,2.6,0.8c1.2,0,2.1-0.2,2.7-0.8c0.6-0.5,0.9-1.1,0.9-1.7c0-0.4-0.1-0.8-0.4-1.1
	c-0.2-0.3-0.7-0.6-1.3-0.8c-0.4-0.1-1.4-0.4-2.9-0.8c-2-0.5-3.3-1.1-4.1-1.8c-1.1-1-1.7-2.2-1.7-3.6c0-0.9,0.3-1.8,0.8-2.6
	s1.3-1.4,2.2-1.8c1-0.4,2.2-0.6,3.5-0.6c2.3,0,4,0.5,5.1,1.5s1.7,2.3,1.8,4l-3.6,0.2c-0.2-0.9-0.5-1.6-1-2s-1.3-0.6-2.3-0.6
	c-1.1,0-1.9,0.2-2.5,0.7c-0.4,0.3-0.6,0.7-0.6,1.1c0,0.4,0.2,0.8,0.5,1.1c0.5,0.4,1.6,0.8,3.4,1.2c1.8,0.4,3.1,0.9,3.9,1.3
	c0.8,0.5,1.5,1.1,2,1.8c0.5,0.8,0.7,1.7,0.7,2.9c0,1-0.3,2-0.9,2.9c-0.6,0.9-1.4,1.6-2.4,2s-2.4,0.7-3.9,0.7c-2.3,0-4-0.5-5.2-1.6
	C182.8,253.2,182,251.7,181.8,249.7"/>
<path class="st14" d="M84.8,255.5v-18h13.4v3.1h-9.7v4h9.1v3h-9.1v4.9h10.1v3H84.8z M101.6,237.5h3.6v9.8c0,1.5,0,2.5,0.1,3
	c0.2,0.7,0.5,1.3,1.1,1.8s1.4,0.7,2.4,0.7s1.8-0.2,2.3-0.6c0.5-0.4,0.8-0.9,0.9-1.6c0.1-0.6,0.2-1.6,0.2-3.1v-10h3.6v9.5
	c0,2.2-0.1,3.7-0.3,4.6c-0.2,0.9-0.6,1.6-1.1,2.3c-0.5,0.6-1.2,1.1-2.1,1.5c-0.9,0.4-2,0.5-3.5,0.5c-1.7,0-3-0.2-3.9-0.6
	c-0.9-0.4-1.6-0.9-2.1-1.5s-0.8-1.3-1-2c-0.2-1-0.3-2.6-0.3-4.6v-9.7H101.6z M119.8,255.5v-18h7.7c1.9,0,3.3,0.2,4.2,0.5
	s1.6,0.9,2.1,1.7s0.8,1.8,0.8,2.8c0,1.4-0.4,2.5-1.2,3.3c-0.8,0.9-2,1.4-3.6,1.7c0.8,0.5,1.4,1,1.9,1.5c0.5,0.6,1.2,1.5,2.1,2.9
	l2.2,3.5h-4.3l-2.6-3.9c-0.9-1.4-1.6-2.3-1.9-2.6s-0.7-0.6-1.1-0.8c-0.4-0.1-1-0.2-1.8-0.2h-0.7v7.5L119.8,255.5L119.8,255.5z
	 M123.4,245.1h2.7c1.7,0,2.8-0.1,3.3-0.2s0.8-0.4,1-0.8c0.2-0.4,0.4-0.8,0.4-1.4c0-0.6-0.2-1.1-0.5-1.5s-0.8-0.6-1.4-0.7
	c-0.3,0-1.2-0.1-2.7-0.1h-2.8V245.1z M137.2,246.6c0-1.8,0.3-3.4,0.8-4.6c0.4-0.9,1-1.7,1.7-2.5c0.7-0.7,1.5-1.3,2.3-1.6
	c1.1-0.5,2.4-0.7,3.9-0.7c2.6,0,4.8,0.8,6.4,2.5c1.6,1.6,2.4,3.9,2.4,6.9c0,2.9-0.8,5.2-2.4,6.8c-1.6,1.6-3.7,2.5-6.3,2.5
	c-2.7,0-4.8-0.8-6.4-2.4C138,251.8,137.2,249.5,137.2,246.6z M141,246.5c0,2,0.5,3.6,1.4,4.7c0.9,1,2.1,1.6,3.6,1.6s2.6-0.5,3.6-1.6
	c0.9-1,1.4-2.6,1.4-4.7c0-2.1-0.4-3.6-1.4-4.6c-0.9-1-2.1-1.5-3.6-1.5s-2.7,0.5-3.6,1.5C141.4,242.9,141,244.4,141,246.5z
	 M157.4,237.5h3.6v18h-3.6V237.5z M164.6,255.5v-18h3.5l7.4,12v-12h3.4v18h-3.7l-7.3-11.8v11.8H164.6z M181.8,249.7l3.5-0.3
	c0.2,1.2,0.6,2.1,1.3,2.6c0.7,0.6,1.5,0.8,2.6,0.8c1.2,0,2.1-0.2,2.7-0.8c0.6-0.5,0.9-1.1,0.9-1.7c0-0.4-0.1-0.8-0.4-1.1
	c-0.2-0.3-0.7-0.6-1.3-0.8c-0.4-0.1-1.4-0.4-2.9-0.8c-2-0.5-3.3-1.1-4.1-1.8c-1.1-1-1.7-2.2-1.7-3.6c0-0.9,0.3-1.8,0.8-2.6
	s1.3-1.4,2.2-1.8c1-0.4,2.2-0.6,3.5-0.6c2.3,0,4,0.5,5.1,1.5s1.7,2.3,1.8,4l-3.6,0.2c-0.2-0.9-0.5-1.6-1-2s-1.3-0.6-2.3-0.6
	c-1.1,0-1.9,0.2-2.5,0.7c-0.4,0.3-0.6,0.7-0.6,1.1c0,0.4,0.2,0.8,0.5,1.1c0.5,0.4,1.6,0.8,3.4,1.2c1.8,0.4,3.1,0.9,3.9,1.3
	c0.8,0.5,1.5,1.1,2,1.8c0.5,0.8,0.7,1.7,0.7,2.9c0,1-0.3,2-0.9,2.9c-0.6,0.9-1.4,1.6-2.4,2s-2.4,0.7-3.9,0.7c-2.3,0-4-0.5-5.2-1.6
	C182.8,253.2,182,251.7,181.8,249.7z"/>
<path class="st13" d="M84.8,264.1v-4h0.8l1,2.9c0.1,0.3,0.1,0.5,0.2,0.6c0-0.1,0.1-0.4,0.2-0.6l1-2.8h0.7v4h-0.5v-3.4l-1.2,3.4h-0.5
	l-1.2-3.4v3.4h-0.5V264.1z M92.3,264.1v-4h2.9v0.5h-2.4v1.2H95v0.5h-2.2v1.4h2.5v0.5h-3V264.1z M98.8,264.1v-4h0.8l1,2.9
	c0.1,0.3,0.2,0.5,0.2,0.6c0-0.1,0.1-0.4,0.2-0.6l1-2.8h0.7v4h-0.5v-3.4l-1.2,3.4h-0.5l-1.2-3.4v3.4h-0.5V264.1z M106.3,264.1v-4h1.5
	c0.3,0,0.6,0,0.7,0.1c0.2,0.1,0.3,0.2,0.4,0.4c0.1,0.2,0.2,0.3,0.2,0.5s0,0.3-0.1,0.5c-0.1,0.1-0.2,0.3-0.4,0.4
	c0.2,0.1,0.4,0.2,0.6,0.4c0.1,0.2,0.2,0.4,0.2,0.6c0,0.2,0,0.4-0.1,0.5c-0.1,0.2-0.2,0.3-0.3,0.4c-0.1,0.1-0.3,0.1-0.4,0.2
	c-0.2,0-0.4,0.1-0.7,0.1h-1.6V264.1z M106.8,261.8h0.9c0.2,0,0.4,0,0.5,0s0.2-0.1,0.3-0.2c0.1-0.1,0.1-0.2,0.1-0.3s0-0.3-0.1-0.4
	c-0.1-0.1-0.1-0.2-0.3-0.2c-0.1,0-0.3-0.1-0.6-0.1h-0.8L106.8,261.8L106.8,261.8z M106.8,263.7h1c0.2,0,0.3,0,0.4,0
	c0.1,0,0.2-0.1,0.3-0.1s0.1-0.1,0.2-0.2c0.1-0.1,0.1-0.2,0.1-0.3c0-0.2,0-0.3-0.1-0.4c-0.1-0.1-0.2-0.2-0.3-0.2s-0.3-0.1-0.6-0.1
	h-0.9L106.8,263.7L106.8,263.7z M112.8,264.1v-4h2.9v0.5h-2.4v1.2h2.2v0.5h-2.2v1.4h2.5v0.5h-3V264.1z M119.3,264.1v-4h1.8
	c0.4,0,0.6,0,0.8,0.1s0.3,0.2,0.5,0.4c0.1,0.2,0.2,0.4,0.2,0.6c0,0.3-0.1,0.5-0.3,0.7s-0.5,0.3-0.9,0.4c0.1,0.1,0.2,0.1,0.3,0.2
	c0.2,0.1,0.3,0.3,0.4,0.5l0.7,1.1h-0.7l-0.5-0.8c-0.2-0.2-0.3-0.4-0.4-0.6c-0.1-0.1-0.2-0.2-0.3-0.3c-0.1,0-0.2-0.1-0.2-0.1
	c-0.1,0-0.2,0-0.3,0h-0.6v1.8L119.3,264.1L119.3,264.1z M119.8,261.9h1.1c0.2,0,0.4,0,0.6-0.1c0.1-0.1,0.2-0.1,0.3-0.2
	c0.1-0.1,0.1-0.2,0.1-0.4s-0.1-0.3-0.2-0.5c-0.1-0.1-0.4-0.2-0.7-0.2h-1.3L119.8,261.9L119.8,261.9z M129.1,262.2
	c0-0.7,0.2-1.2,0.5-1.6c0.4-0.4,0.8-0.6,1.4-0.6c0.4,0,0.7,0.1,1,0.3s0.5,0.4,0.7,0.7s0.2,0.7,0.2,1.1c0,0.4-0.1,0.8-0.2,1.1
	s-0.4,0.6-0.7,0.7c-0.3,0.2-0.6,0.2-1,0.2s-0.7-0.1-1-0.3s-0.5-0.4-0.7-0.8C129.2,262.9,129.1,262.5,129.1,262.2 M129.6,262.2
	c0,0.5,0.1,0.9,0.4,1.1c0.3,0.3,0.6,0.4,1,0.4s0.7-0.1,1-0.4c0.3-0.3,0.4-0.7,0.4-1.2c0-0.3-0.1-0.6-0.2-0.9
	c-0.1-0.2-0.3-0.4-0.5-0.6c-0.2-0.1-0.5-0.2-0.7-0.2c-0.4,0-0.7,0.1-1,0.4C129.8,261.1,129.6,261.6,129.6,262.2 M136.4,264.1v-4h2.7
	v0.5h-2.2v1.3h1.9v0.5h-1.9v1.8L136.4,264.1L136.4,264.1z M145.7,264.1v-4h2.9v0.5h-2.3v1.2h2.2v0.5h-2.2v1.4h2.5v0.5h-3.1V264.1z
	 M154.9,260.1h0.5v2.3c0,0.4-0.1,0.7-0.1,1c-0.1,0.2-0.3,0.4-0.5,0.6c-0.2,0.2-0.6,0.2-0.9,0.2c-0.4,0-0.7-0.1-0.9-0.2
	c-0.2-0.1-0.4-0.3-0.5-0.6c-0.1-0.2-0.2-0.6-0.2-1v-2.3h0.5v2.3c0,0.3,0,0.6,0.1,0.8s0.2,0.3,0.3,0.4c0.1,0.1,0.3,0.1,0.6,0.1
	c0.4,0,0.7-0.1,0.8-0.3c0.2-0.2,0.2-0.5,0.2-1L154.9,260.1L154.9,260.1z M159.1,264.1v-4h1.8c0.3,0,0.6,0,0.8,0.1s0.3,0.2,0.5,0.4
	c0.1,0.2,0.2,0.4,0.2,0.6c0,0.3-0.1,0.5-0.3,0.7s-0.5,0.3-0.9,0.4c0.1,0.1,0.2,0.1,0.3,0.2c0.2,0.1,0.3,0.3,0.4,0.5l0.7,1.1h-0.7
	l-0.5-0.8c-0.1-0.2-0.3-0.4-0.4-0.6c-0.1-0.1-0.2-0.2-0.3-0.3c-0.1,0-0.2-0.1-0.2-0.1c-0.1,0-0.2,0-0.3,0h-0.6v1.8L159.1,264.1
	L159.1,264.1z M159.6,261.9h1.1c0.2,0,0.4,0,0.6-0.1c0.1-0.1,0.2-0.1,0.3-0.2c0.1-0.1,0.1-0.2,0.1-0.4s-0.1-0.3-0.2-0.5
	c-0.1-0.1-0.3-0.2-0.7-0.2h-1.3L159.6,261.9L159.6,261.9z M165.7,262.2c0-0.7,0.2-1.2,0.5-1.6c0.4-0.4,0.8-0.6,1.4-0.6
	c0.4,0,0.7,0.1,1,0.3s0.5,0.4,0.7,0.7c0.1,0.3,0.2,0.7,0.2,1.1c0,0.4-0.1,0.8-0.2,1.1c-0.2,0.3-0.4,0.6-0.7,0.7
	c-0.3,0.2-0.6,0.2-1,0.2s-0.7-0.1-1-0.3s-0.5-0.4-0.7-0.8C165.8,262.9,165.7,262.5,165.7,262.2 M166.3,262.2c0,0.5,0.1,0.9,0.4,1.1
	c0.3,0.3,0.6,0.4,1,0.4s0.7-0.1,1-0.4c0.3-0.3,0.4-0.7,0.4-1.2c0-0.3-0.1-0.6-0.2-0.9c-0.1-0.2-0.3-0.4-0.5-0.6
	c-0.2-0.1-0.5-0.2-0.7-0.2c-0.4,0-0.7,0.1-1,0.4C166.4,261.1,166.3,261.6,166.3,262.2 M173,264.1v-4h0.5v1.7h2.1v-1.7h0.5v4h-0.5
	v-1.9h-2.1v1.9H173z M179.7,262.2c0-0.7,0.2-1.2,0.5-1.6c0.4-0.4,0.8-0.6,1.4-0.6c0.4,0,0.7,0.1,1,0.3s0.5,0.4,0.7,0.7
	s0.2,0.7,0.2,1.1c0,0.4-0.1,0.8-0.2,1.1s-0.4,0.6-0.7,0.7c-0.3,0.2-0.6,0.2-1,0.2s-0.7-0.1-1-0.3s-0.5-0.4-0.7-0.8
	C179.7,262.9,179.7,262.5,179.7,262.2 M180.2,262.2c0,0.5,0.1,0.9,0.4,1.1c0.3,0.3,0.6,0.4,1,0.4s0.7-0.1,1-0.4
	c0.3-0.3,0.4-0.7,0.4-1.2c0-0.3-0.1-0.6-0.2-0.9c-0.1-0.2-0.3-0.4-0.5-0.6c-0.2-0.1-0.4-0.2-0.7-0.2c-0.4,0-0.7,0.1-1,0.4
	C180.4,261.1,180.2,261.6,180.2,262.2 M186.9,264.1v-4h0.5v3.6h2v0.5L186.9,264.1L186.9,264.1z M192.8,264.1v-4h1.4
	c0.3,0,0.6,0,0.7,0.1c0.2,0.1,0.4,0.1,0.6,0.3c0.2,0.2,0.4,0.4,0.5,0.7s0.2,0.6,0.2,1c0,0.3,0,0.6-0.1,0.8s-0.2,0.4-0.3,0.6
	c-0.1,0.2-0.2,0.3-0.4,0.4c-0.1,0.1-0.3,0.2-0.5,0.2c-0.2,0.1-0.4,0.1-0.6,0.1h-1.5V264.1z M193.4,263.7h0.9c0.3,0,0.5,0,0.6-0.1
	c0.1,0,0.3-0.1,0.4-0.2c0.1-0.1,0.2-0.3,0.3-0.5s0.1-0.5,0.1-0.8c0-0.4-0.1-0.7-0.2-1c-0.1-0.2-0.3-0.4-0.5-0.5
	c-0.1-0.1-0.4-0.1-0.7-0.1h-0.9L193.4,263.7L193.4,263.7z"/>
<path class="st14" d="M84.8,264.1v-4h0.8l1,2.9c0.1,0.3,0.1,0.5,0.2,0.6c0-0.1,0.1-0.4,0.2-0.6l1-2.8h0.7v4h-0.5v-3.4l-1.2,3.4h-0.5
	l-1.2-3.4v3.4h-0.5V264.1z M92.3,264.1v-4h2.9v0.5h-2.4v1.2H95v0.5h-2.2v1.4h2.5v0.5h-3V264.1z M98.8,264.1v-4h0.8l1,2.9
	c0.1,0.3,0.2,0.5,0.2,0.6c0-0.1,0.1-0.4,0.2-0.6l1-2.8h0.7v4h-0.5v-3.4l-1.2,3.4h-0.5l-1.2-3.4v3.4h-0.5V264.1z M106.3,264.1v-4h1.5
	c0.3,0,0.6,0,0.7,0.1c0.2,0.1,0.3,0.2,0.4,0.4c0.1,0.2,0.2,0.3,0.2,0.5s0,0.3-0.1,0.5c-0.1,0.1-0.2,0.3-0.4,0.4
	c0.2,0.1,0.4,0.2,0.6,0.4c0.1,0.2,0.2,0.4,0.2,0.6c0,0.2,0,0.4-0.1,0.5c-0.1,0.2-0.2,0.3-0.3,0.4c-0.1,0.1-0.3,0.1-0.4,0.2
	c-0.2,0-0.4,0.1-0.7,0.1h-1.6V264.1z M106.8,261.8h0.9c0.2,0,0.4,0,0.5,0s0.2-0.1,0.3-0.2c0.1-0.1,0.1-0.2,0.1-0.3s0-0.3-0.1-0.4
	c-0.1-0.1-0.1-0.2-0.3-0.2c-0.1,0-0.3-0.1-0.6-0.1h-0.8L106.8,261.8L106.8,261.8z M106.8,263.7h1c0.2,0,0.3,0,0.4,0
	c0.1,0,0.2-0.1,0.3-0.1s0.1-0.1,0.2-0.2c0.1-0.1,0.1-0.2,0.1-0.3c0-0.2,0-0.3-0.1-0.4c-0.1-0.1-0.2-0.2-0.3-0.2s-0.3-0.1-0.6-0.1
	h-0.9L106.8,263.7L106.8,263.7z M112.8,264.1v-4h2.9v0.5h-2.4v1.2h2.2v0.5h-2.2v1.4h2.5v0.5h-3V264.1z M119.3,264.1v-4h1.8
	c0.4,0,0.6,0,0.8,0.1s0.3,0.2,0.5,0.4c0.1,0.2,0.2,0.4,0.2,0.6c0,0.3-0.1,0.5-0.3,0.7s-0.5,0.3-0.9,0.4c0.1,0.1,0.2,0.1,0.3,0.2
	c0.2,0.1,0.3,0.3,0.4,0.5l0.7,1.1h-0.7l-0.5-0.8c-0.2-0.2-0.3-0.4-0.4-0.6c-0.1-0.1-0.2-0.2-0.3-0.3c-0.1,0-0.2-0.1-0.2-0.1
	c-0.1,0-0.2,0-0.3,0h-0.6v1.8L119.3,264.1L119.3,264.1z M119.8,261.9h1.1c0.2,0,0.4,0,0.6-0.1c0.1-0.1,0.2-0.1,0.3-0.2
	c0.1-0.1,0.1-0.2,0.1-0.4s-0.1-0.3-0.2-0.5c-0.1-0.1-0.4-0.2-0.7-0.2h-1.3L119.8,261.9L119.8,261.9z M129.1,262.2
	c0-0.7,0.2-1.2,0.5-1.6c0.4-0.4,0.8-0.6,1.4-0.6c0.4,0,0.7,0.1,1,0.3s0.5,0.4,0.7,0.7s0.2,0.7,0.2,1.1c0,0.4-0.1,0.8-0.2,1.1
	s-0.4,0.6-0.7,0.7c-0.3,0.2-0.6,0.2-1,0.2s-0.7-0.1-1-0.3s-0.5-0.4-0.7-0.8C129.2,262.9,129.1,262.5,129.1,262.2z M129.6,262.2
	c0,0.5,0.1,0.9,0.4,1.1c0.3,0.3,0.6,0.4,1,0.4s0.7-0.1,1-0.4c0.3-0.3,0.4-0.7,0.4-1.2c0-0.3-0.1-0.6-0.2-0.9
	c-0.1-0.2-0.3-0.4-0.5-0.6c-0.2-0.1-0.5-0.2-0.7-0.2c-0.4,0-0.7,0.1-1,0.4C129.8,261.1,129.6,261.6,129.6,262.2z M136.4,264.1v-4
	h2.7v0.5h-2.2v1.3h1.9v0.5h-1.9v1.8L136.4,264.1L136.4,264.1z M145.7,264.1v-4h2.9v0.5h-2.3v1.2h2.2v0.5h-2.2v1.4h2.5v0.5h-3.1
	V264.1z M154.9,260.1h0.5v2.3c0,0.4-0.1,0.7-0.1,1c-0.1,0.2-0.3,0.4-0.5,0.6c-0.2,0.2-0.6,0.2-0.9,0.2c-0.4,0-0.7-0.1-0.9-0.2
	c-0.2-0.1-0.4-0.3-0.5-0.6c-0.1-0.2-0.2-0.6-0.2-1v-2.3h0.5v2.3c0,0.3,0,0.6,0.1,0.8s0.2,0.3,0.3,0.4c0.1,0.1,0.3,0.1,0.6,0.1
	c0.4,0,0.7-0.1,0.8-0.3c0.2-0.2,0.2-0.5,0.2-1L154.9,260.1L154.9,260.1z M159.1,264.1v-4h1.8c0.3,0,0.6,0,0.8,0.1s0.3,0.2,0.5,0.4
	c0.1,0.2,0.2,0.4,0.2,0.6c0,0.3-0.1,0.5-0.3,0.7s-0.5,0.3-0.9,0.4c0.1,0.1,0.2,0.1,0.3,0.2c0.2,0.1,0.3,0.3,0.4,0.5l0.7,1.1h-0.7
	l-0.5-0.8c-0.1-0.2-0.3-0.4-0.4-0.6c-0.1-0.1-0.2-0.2-0.3-0.3c-0.1,0-0.2-0.1-0.2-0.1c-0.1,0-0.2,0-0.3,0h-0.6v1.8L159.1,264.1
	L159.1,264.1z M159.6,261.9h1.1c0.2,0,0.4,0,0.6-0.1c0.1-0.1,0.2-0.1,0.3-0.2c0.1-0.1,0.1-0.2,0.1-0.4s-0.1-0.3-0.2-0.5
	c-0.1-0.1-0.3-0.2-0.7-0.2h-1.3L159.6,261.9L159.6,261.9z M165.7,262.2c0-0.7,0.2-1.2,0.5-1.6c0.4-0.4,0.8-0.6,1.4-0.6
	c0.4,0,0.7,0.1,1,0.3s0.5,0.4,0.7,0.7c0.1,0.3,0.2,0.7,0.2,1.1c0,0.4-0.1,0.8-0.2,1.1c-0.2,0.3-0.4,0.6-0.7,0.7
	c-0.3,0.2-0.6,0.2-1,0.2s-0.7-0.1-1-0.3s-0.5-0.4-0.7-0.8C165.8,262.9,165.7,262.5,165.7,262.2z M166.3,262.2c0,0.5,0.1,0.9,0.4,1.1
	c0.3,0.3,0.6,0.4,1,0.4s0.7-0.1,1-0.4c0.3-0.3,0.4-0.7,0.4-1.2c0-0.3-0.1-0.6-0.2-0.9c-0.1-0.2-0.3-0.4-0.5-0.6
	c-0.2-0.1-0.5-0.2-0.7-0.2c-0.4,0-0.7,0.1-1,0.4C166.4,261.1,166.3,261.6,166.3,262.2z M173,264.1v-4h0.5v1.7h2.1v-1.7h0.5v4h-0.5
	v-1.9h-2.1v1.9H173z M179.7,262.2c0-0.7,0.2-1.2,0.5-1.6c0.4-0.4,0.8-0.6,1.4-0.6c0.4,0,0.7,0.1,1,0.3s0.5,0.4,0.7,0.7
	s0.2,0.7,0.2,1.1c0,0.4-0.1,0.8-0.2,1.1s-0.4,0.6-0.7,0.7c-0.3,0.2-0.6,0.2-1,0.2s-0.7-0.1-1-0.3s-0.5-0.4-0.7-0.8
	C179.7,262.9,179.7,262.5,179.7,262.2z M180.2,262.2c0,0.5,0.1,0.9,0.4,1.1c0.3,0.3,0.6,0.4,1,0.4s0.7-0.1,1-0.4
	c0.3-0.3,0.4-0.7,0.4-1.2c0-0.3-0.1-0.6-0.2-0.9c-0.1-0.2-0.3-0.4-0.5-0.6c-0.2-0.1-0.4-0.2-0.7-0.2c-0.4,0-0.7,0.1-1,0.4
	C180.4,261.1,180.2,261.6,180.2,262.2z M186.9,264.1v-4h0.5v3.6h2v0.5L186.9,264.1L186.9,264.1z M192.8,264.1v-4h1.4
	c0.3,0,0.6,0,0.7,0.1c0.2,0.1,0.4,0.1,0.6,0.3c0.2,0.2,0.4,0.4,0.5,0.7s0.2,0.6,0.2,1c0,0.3,0,0.6-0.1,0.8s-0.2,0.4-0.3,0.6
	c-0.1,0.2-0.2,0.3-0.4,0.4c-0.1,0.1-0.3,0.2-0.5,0.2c-0.2,0.1-0.4,0.1-0.6,0.1h-1.5V264.1z M193.4,263.7h0.9c0.3,0,0.5,0,0.6-0.1
	c0.1,0,0.3-0.1,0.4-0.2c0.1-0.1,0.2-0.3,0.3-0.5s0.1-0.5,0.1-0.8c0-0.4-0.1-0.7-0.2-1c-0.1-0.2-0.3-0.4-0.5-0.5
	c-0.1-0.1-0.4-0.1-0.7-0.1h-0.9L193.4,263.7L193.4,263.7z"/>
<polygon class="st4" points="43.5,253.2 45.1,253.2 45.6,251.7 46.1,253.2 47.7,253.2 46.4,254.1 46.9,255.6 45.6,254.7 44.3,255.6 
	44.8,254.1 "/>
<polygon class="st4" points="41.7,245.9 43.2,245.9 43.7,244.5 44.2,245.9 45.7,245.9 44.5,246.8 45,248.2 43.8,247.3 42.5,248.2 
	43,246.8 "/>
<polygon class="st4" points="43.8,238.2 45.3,238.2 45.8,236.6 46.3,238.2 47.9,238.2 46.6,239.1 47.1,240.6 45.8,239.7 44.6,240.6 
	45.1,239.1 "/>
<polygon class="st4" points="49.3,232.9 50.8,232.9 51.3,231.5 51.8,232.9 53.3,232.9 52.1,233.8 52.6,235.2 51.4,234.3 50.1,235.2 
	50.6,233.8 "/>
<polygon class="st4" points="49.2,258.4 50.7,258.4 51.2,256.9 51.7,258.4 53.2,258.4 52,259.3 52.5,260.8 51.3,259.9 50,260.8 
	50.5,259.3 "/>
</svg>
